<?xml version="1.0" encoding="UTF-8" standalone="no"?>
<!DOCTYPE svg PUBLIC "-//W3C//DTD SVG 1.1//EN"
 "http://www.w3.org/Graphics/SVG/1.1/DTD/svg11.dtd">
<!-- Generated by graphviz version 2.40.1 (20161225.0304)
 -->
<!-- Title: G Pages: 1 -->
<svg width="295pt" height="136pt"
 viewBox="0.00 0.00 294.57 136.00" xmlns="http://www.w3.org/2000/svg" xmlns:xlink="http://www.w3.org/1999/xlink">
<g id="graph0" class="graph" transform="scale(1 1) rotate(0) translate(4 132)">
<title>G</title>
<polygon fill="#ffffff" stroke="transparent" points="-4,4 -4,-132 290.571,-132 290.571,4 -4,4"/>
<!-- A0 -->
<g id="node1" class="node">
<title>A0</title>
<polygon fill="none" stroke="#000000" points="158,-128 104,-128 104,-92 158,-92 158,-128"/>
<text text-anchor="middle" x="131" y="-107" font-family="Helvetica,sans-Serif" font-size="10.00" fill="#000000">App</text>
</g>
<!-- A1 -->
<g id="node2" class="node">
<title>A1</title>
<polygon fill="none" stroke="#000000" points="286.3577,-82 208.2133,-82 208.2133,-46 286.3577,-46 286.3577,-82"/>
<text text-anchor="middle" x="247.2855" y="-61" font-family="Helvetica,sans-Serif" font-size="10.00" fill="#000000">AppTesting</text>
</g>
<!-- A0&#45;&gt;A1 -->
<g id="edge1" class="edge">
<title>A0&#45;&gt;A1</title>
<path fill="none" stroke="#000000" d="M169.5685,-94.7431C181.8706,-89.8767 195.4962,-84.4867 207.8582,-79.5966"/>
<polygon fill="#000000" stroke="#000000" points="169.4224,-94.8009 165.3145,-100.7275 158.2638,-99.215 162.3717,-93.2884 169.4224,-94.8009"/>
<text text-anchor="middle" x="194.1121" y="-91.1239" font-family="Helvetica,sans-Serif" font-size="10.00" fill="#000000">0..*</text>
<text text-anchor="middle" x="172.0099" y="-81.6877" font-family="Helvetica,sans-Serif" font-size="10.00" fill="#000000">1</text>
</g>
<!-- A2 -->
<g id="node3" class="node">
<title>A2</title>
<polygon fill="none" stroke="#000000" points="54,-59 0,-59 0,-23 54,-23 54,-59"/>
<text text-anchor="middle" x="27" y="-38" font-family="Helvetica,sans-Serif" font-size="10.00" fill="#000000">User</text>
</g>
<!-- A2&#45;&gt;A1 -->
<g id="edge2" class="edge">
<title>A2&#45;&gt;A1</title>
<path fill="none" stroke="#000000" d="M54.0113,-43.8203C92.6136,-47.8507 163.7867,-55.2819 208.1567,-59.9146"/>
<text text-anchor="middle" x="189.2508" y="-63.4389" font-family="Helvetica,sans-Serif" font-size="10.00" fill="#000000">0..*</text>
<text text-anchor="middle" x="72.9172" y="-34.2959" font-family="Helvetica,sans-Serif" font-size="10.00" fill="#000000">1</text>
</g>
<!-- A3 -->
<g id="node4" class="node">
<title>A3</title>
<polygon fill="none" stroke="#000000" points="158,-36 104,-36 104,0 158,0 158,-36"/>
<text text-anchor="middle" x="131" y="-15" font-family="Helvetica,sans-Serif" font-size="10.00" fill="#000000">Event</text>
</g>
<!-- A2&#45;&gt;A3 -->
<g id="edge3" class="edge">
<title>A2&#45;&gt;A3</title>
<path fill="none" stroke="#000000" d="M54.0533,-35.0171C66.1157,-32.3494 80.5252,-29.1627 93.5959,-26.2721"/>
<polygon fill="#000000" stroke="#000000" points="103.7209,-24.0329 94.9286,-30.5862 98.8388,-25.1126 93.9568,-26.1923 93.9568,-26.1923 93.9568,-26.1923 98.8388,-25.1126 92.9851,-21.7985 103.7209,-24.0329 103.7209,-24.0329"/>
<text text-anchor="middle" x="87.8475" y="-33.1999" font-family="Helvetica,sans-Serif" font-size="10.00" fill="#000000">0..*</text>
<text text-anchor="middle" x="69.9266" y="-19.85" font-family="Helvetica,sans-Serif" font-size="10.00" fill="#000000">1</text>
</g>
<!-- A3&#45;&gt;A1 -->
<g id="edge4" class="edge">
<title>A3&#45;&gt;A1</title>
<path fill="none" stroke="#000000" d="M158.2638,-28.785C170.2632,-33.5317 184.7346,-39.2562 198.4894,-44.6973"/>
<polygon fill="#000000" stroke="#000000" points="207.8582,-48.4034 196.904,-48.9094 203.2088,-46.5642 198.5594,-44.7249 198.5594,-44.7249 198.5594,-44.7249 203.2088,-46.5642 200.2147,-40.5404 207.8582,-48.4034 207.8582,-48.4034"/>
<text text-anchor="middle" x="187.8938" y="-46.5956" font-family="Helvetica,sans-Serif" font-size="10.00" fill="#000000">1</text>
<text text-anchor="middle" x="178.2282" y="-24.5928" font-family="Helvetica,sans-Serif" font-size="10.00" fill="#000000">1</text>
</g>
</g>
</svg>
